#!OML:ASF F:\twosubjects\two\Thursday\Session 1\justin.ASF
:FULLY-SPECIFIED
:DEGREES
472
root 9.49809 18.3718 6.55583 -165.48 49.6829 -173.069
lowerback 2.81879 -1.65056 -2.12425
upperback 5.36516 -2.06182 2.27392
thorax 4.12473 -1.0776 3.53091
lowerneck -13.1519 6.04586 3.06009
upperneck 24.0039 6.20812 10.1698
head 9.5447 4.58737 3.81137
rclavicle -2.50469e-014 1.59028e-014
rhumerus -21.4854 -11.2701 -80.3697
rradius 33.3941
rwrist -6.65077
rhand -14.9338 12.7846
rfingers 7.12502
rthumb 11.2286 -16.8949
lclavicle -2.50469e-014 1.59028e-014
lhumerus -31.024 -2.55284 87.5221
lradius 41.3276
lwrist -1.64153
lhand -5.5006 37.2866
lfingers 7.12502
lthumb 20.3124 66.2444
rfemur -19.2383 -3.31317 28.1835
rtibia 28.4295
rfoot -18.5138 -3.80643
rtoes -2.42153
lfemur -17.2257 7.02345 -7.26337
ltibia 11.9845
lfoot -4.27014 14.6499
ltoes -7.43205
473
root 9.50741 18.3703 6.60355 -165.57 49.3452 -173.548
lowerback 2.78995 -1.70203 -2.47196
upperback 5.41361 -2.12648 2.09095
thorax 4.20453 -1.12205 3.53404
lowerneck -12.9569 6.08037 3.2365
upperneck 23.3436 6.25997 10.0598
head 9.28551 4.58359 3.70314
rclavicle 1.17283e-014 1.70955e-014
rhumerus -21.4715 -11.8224 -80.4478
rradius 33.0171
rwrist -6.18479
rhand -15.0554 13.0373
rfingers 7.12502
rthumb 11.1113 -16.6485
lclavicle 1.17283e-014 1.70955e-014
lhumerus -30.6426 -2.54775 87.4199
lradius 41.1798
lwrist -2.48514
lhand -5.37254 37.6701
lfingers 7.12502
lthumb 20.4354 66.6148
rfemur -19.5881 -3.33648 28.1021
rtibia 28.3859
rfoot -18.4141 -4.15018
rtoes -2.45859
lfemur -17.8977 7.8931 -7.79237
ltibia 12.5936
lfoot -3.72294 13.8018
ltoes -8.19612
474
root 9.52096 18.374 6.62625 -165.494 49.1767 -173.467
lowerback 2.83369 -1.61284 -2.27783
upperback 5.54511 -1.99519 1.94458
thorax 4.29251 -1.04435 3.27441
lowerneck -12.9451 6.03468 3.49863
upperneck 22.8997 6.19944 9.76349
head 9.15347 4.52372 3.52806
rclavicle -4.37326e-015 2.5842e-014
rhumerus -21.6544 -12.2287 -80.3664
rradius 32.8301
rwrist -6.1679
rhand -15.3306 12.3904
rfingers 7.12502
rthumb 10.8459 -17.3095
lclavicle -4.37326e-015 2.5842e-014
lhumerus -30.2831 -2.90332 87.4569
lradius 40.9738
lwrist -2.83542
lhand -5.88662 38.0029
lfingers 7.12502
lthumb 19.9413 66.9998
rfemur -19.5601 -3.40534 28.2763
rtibia 28.2588
rfoot -18.3617 -4.21941
rtoes -2.25888
lfemur -18.1561 8.41237 -7.9382
ltibia 13.4408
lfoot -3.7308 13.4216
ltoes -8.73394
475
root 9.53304 18.3772 6.63084 -165.312 49.0073 -173.028
lowerback 3.06209 -1.62686 -1.88881
upperback 5.61232 -2.00757 2.02593
thorax 4.22197 -1.0316 3.14566
lowerneck -12.8557 6.07856 3.47243
upperneck 22.6648 6.34157 9.37485
head 9.06031 4.52682 3.39658
rclavicle 1.59028e-015 1.43125e-014
rhumerus -21.9702 -11.9091 -80.0507
rradius 32.5751
rwrist -6.23967
rhand -15.2188 11.8036
rfingers 7.12502
rthumb 10.9537 -17.8906
lclavicle 1.59028e-015 1.43125e-014
lhumerus -30.1782 -3.39737 87.799
lradius 40.7571
lwrist -2.66115
lhand -7.36723 38.134
lfingers 7.12502
lthumb 18.5176 67.2726
rfemur -19.3047 -3.60057 28.6223
rtibia 28.0846
rfoot -18.3393 -4.08812
rtoes -1.8084
lfemur -18.2935 8.54442 -7.81335
ltibia 14.4698
lfoot -4.17202 13.4274
ltoes -9.4274
476
root 9.54648 18.3765 6.66425 -164.913 48.7918 -172.984
lowerback 2.96612 -1.76217 -2.07491
upperback 5.443 -2.20239 2.15553
thorax 4.12681 -1.1413 3.38168
lowerneck -12.6583 6.21163 3.10843
upperneck 22.5879 6.62802 9.31415
head 8.9691 4.61338 3.44908
rclavicle 1.67774e-013 -4.65156e-014
rhumerus -22.1987 -11.3576 -79.8713
rradius 32.1144
rwrist -6.27281
rhand -14.9152 11.6357
rfingers 7.12502
rthumb 11.2466 -18.0429
lclavicle 1.67774e-013 -4.65156e-014
lhumerus -30.3355 -3.25984 88.0273
lradius 40.7486
lwrist -3.10674
lhand -8.26689 38.2116
lfingers 7.12502
lthumb 17.652 67.4303
rfemur -19.5925 -3.50861 28.8438
rtibia 27.8295
rfoot -18.2564 -4.18344
rtoes -1.54731
lfemur -19.2473 9.50923 -8.07014
ltibia 15.6167
lfoot -4.46258 12.5085
ltoes -9.89121
477
root 9.55979 18.3738 6.69429 -164.328 48.3999 -172.402
lowerback 3.01734 -1.85046 -1.75103
upperback 5.38654 -2.32189 2.28391
thorax 4.03865 -1.1887 3.3339
lowerneck -12.445 6.27125 2.65043
upperneck 22.4519 6.76927 9.62318
head 8.84221 4.66936 3.6228
rclavicle -1.09928e-013 3.33958e-014
rhumerus -22.3932 -11.1946 -79.8127
rradius 31.6178
rwrist -6.18109
rhand -14.7904 11.7147
rfingers 7.12502
rthumb 11.3669 -17.9572
lclavicle -1.09928e-013 3.33958e-014
lhumerus -30.3367 -3.11527 88.0676
lradius 40.6847
lwrist -3.90113
lhand -8.16415 38.4927
lfingers 7.12502
lthumb 17.7509 67.7025
rfemur -19.6731 -3.67152 29.4842
rtibia 27.5837
rfoot -18.2145 -4.19764
rtoes -1.78858
lfemur -19.8869 10.0739 -7.82847
ltibia 16.5926
lfoot -4.85236 11.8015
ltoes -8.24792
478
root 9.5705 18.3727 6.70832 -164.115 48.1391 -171.868
lowerback 3.28304 -1.81575 -1.35511
upperback 5.50835 -2.26148 2.35302
thorax 3.99726 -1.13846 3.19071
lowerneck -12.2905 6.30152 2.37152
upperneck 22.0946 6.85686 9.76231
head 8.66769 4.68725 3.69535
rclavicle -3.97569e-016 -2.0276e-014
rhumerus -22.6005 -11.5106 -79.6003
rradius 31.1919
rwrist -5.73599
rhand -14.7232 11.9698
rfingers 7.12502
rthumb 11.4317 -17.6986
lclavicle -3.97569e-016 -2.0276e-014
lhumerus -30.0367 -3.44806 88.1669
lradius 40.3672
lwrist -4.30131
lhand -8.26794 38.6584
lfingers 7.12502
lthumb 17.651 67.8772
rfemur -19.4265 -3.95816 29.9944
rtibia 27.4469
rfoot -18.1702 -4.08142
rtoes -1.62927
lfemur -19.8802 10.2325 -7.59343
ltibia 17.3012
lfoot -5.03242 11.6322
ltoes -6.95927
479
root 9.58052 18.3756 6.71452 -164.622 48.1165 -172.264
lowerback 3.51543 -1.82631 -1.55238
upperback 5.67789 -2.26362 2.24092
thorax 4.04829 -1.14222 3.19048
lowerneck -12.2002 6.37816 2.27588
upperneck 21.7038 7.03424 9.48235
head 8.51517 4.71081 3.60751
rclavicle 3.61788e-014 -7.95139e-016
rhumerus -22.6498 -12.0365 -79.4061
rradius 30.6984
rwrist -4.96153
rhand -14.5551 12.1989
rfingers 7.12502
rthumb 11.5938 -17.4604
lclavicle 3.61788e-014 -7.95139e-016
lhumerus -29.2836 -3.52972 88.1132
lradius 39.769
lwrist -4.49799
lhand -8.48412 38.6125
lfingers 7.12502
lthumb 17.443 67.8498
rfemur -19.1004 -3.89059 29.7004
rtibia 27.3018
rfoot -18.1357 -4.21907
rtoes -1.3641
lfemur -19.7032 10.3583 -8.12684
ltibia 17.8765
lfoot -4.82367 11.5524
ltoes -7.59728
480
root 9.59373 18.3802 6.7401 -164.652 47.9256 -172.722
lowerback 3.31208 -1.81209 -1.79918
upperback 5.69695 -2.24625 2.10742
thorax 4.18681 -1.14431 3.18417
lowerneck -12.2881 6.33527 2.18537
upperneck 21.4432 7.01492 9.29577
head 8.44616 4.66218 3.54753
rclavicle -1.39149e-014 5.96354e-015
rhumerus -22.6938 -12.8162 -79.2418
rradius 30.2312
rwrist -4.10077
rhand -14.4413 12.1214
rfingers 7.12502
rthumb 11.7036 -17.5317
lclavicle -1.39149e-014 5.96354e-015
lhumerus -28.0319 -4.04622 87.9304
lradius 38.8979
lwrist -4.13919
lhand -8.57937 38.2422
lfingers 7.12502
lthumb 17.3513 67.4877
rfemur -19.4376 -3.76808 29.5096
rtibia 27.2623
rfoot -18.0508 -4.5177
rtoes -0.923752
lfemur -20.1763 10.7482 -8.66776
ltibia 18.4116
lfoot -4.61559 10.7463
ltoes -6.21257
481
root 9.6129 18.3863 6.74145 -164.747 47.9609 -172.918
lowerback 3.16954 -1.71093 -1.78959
upperback 5.82488 -2.10188 1.98386
thorax 4.3855 -1.07026 3.04652
lowerneck -12.3964 6.31223 1.69718
upperneck 21.2033 7.0359 9.48735
head 8.35207 4.64449 3.68265
rclavicle 8.46823e-014 -1.39149e-014
rhumerus -22.8569 -13.0601 -79.0593
rradius 29.9786
rwrist -3.77019
rhand -14.7327 11.91
rfingers 7.12502
rthumb 11.4226 -17.7589
lclavicle 8.46823e-014 -1.39149e-014
lhumerus -27.2241 -4.52513 87.9145
lradius 38.4137
lwrist -3.62911
lhand -8.92056 38.0357
lfingers 7.12502
lthumb 17.0229 67.3098
rfemur -19.4602 -4.08217 29.3957
rtibia 27.2184
rfoot -18.0244 -4.11056
rtoes 0.0698035
lfemur -20.1611 10.3458 -8.89386
ltibia 18.9726
lfoot -4.52694 10.8668
ltoes -3.76241
482
root 9.62162 18.3784 6.78229 -164.48 47.466 -173.11
lowerback 3.11603 -1.82134 -1.96575
upperback 5.71347 -2.25831 2.04667
thorax 4.32062 -1.15867 3.20846
lowerneck -12.4399 6.35825 0.987525
upperneck 21.0284 7.18364 9.78073
head 8.2465 4.68149 3.89842
rclavicle 1.03169e-013 -2.26615e-014
rhumerus -23.0706 -12.6717 -78.9909
rradius 29.815
rwrist -4.11515
rhand -15.2406 11.8335
rfingers 7.12502
rthumb 10.9327 -17.8618
lclavicle 1.03169e-013 -2.26615e-014
lhumerus -27.0064 -4.62311 88.0391
lradius 38.2624
lwrist -3.51482
lhand -9.40025 38.4624
lfingers 7.12502
lthumb 16.5611 67.7757
rfemur -20.0104 -4.37143 29.5574
rtibia 27.2342
rfoot -18.0292 -4.14414
rtoes 0.935778
lfemur -20.9615 11.2679 -9.4783
ltibia 19.6283
lfoot -3.45735 9.63171
ltoes -7.8948
